<mxfile host="app.diagrams.net" modified="2024-06-20T16:59:20.887Z" agent="Mozilla/5.0 (Windows NT 10.0; Win64; x64) AppleWebKit/537.36 (KHTML, like Gecko) Chrome/123.0.0.0 Safari/537.36 OPR/109.0.0.0 (Edition std-2)" etag="LF539OQyCk6cve_AlhTM" version="24.5.5" type="google">
  <diagram name="Page-1" id="G3Spaal6OUApZdfM_Q3K">
    <mxGraphModel grid="1" page="1" gridSize="10" guides="1" tooltips="1" connect="1" arrows="1" fold="1" pageScale="1" pageWidth="850" pageHeight="1100" math="0" shadow="0">
      <root>
        <mxCell id="0" />
        <mxCell id="1" parent="0" />
        <mxCell id="irMMtgjXP_OlYxTBLziZ-1" value="OOP PRINCIPLE" style="rounded=1;whiteSpace=wrap;html=1;" vertex="1" parent="1">
          <mxGeometry x="360" y="360" width="120" height="60" as="geometry" />
        </mxCell>
        <mxCell id="irMMtgjXP_OlYxTBLziZ-9" style="edgeStyle=orthogonalEdgeStyle;rounded=0;orthogonalLoop=1;jettySize=auto;html=1;exitX=0.5;exitY=0;exitDx=0;exitDy=0;entryX=0.5;entryY=1;entryDx=0;entryDy=0;" edge="1" parent="1" source="irMMtgjXP_OlYxTBLziZ-2" target="irMMtgjXP_OlYxTBLziZ-3">
          <mxGeometry relative="1" as="geometry" />
        </mxCell>
        <mxCell id="irMMtgjXP_OlYxTBLziZ-44" value="Allow&lt;div&gt;access&lt;/div&gt;" style="edgeLabel;html=1;align=center;verticalAlign=middle;resizable=0;points=[];" connectable="0" vertex="1" parent="irMMtgjXP_OlYxTBLziZ-9">
          <mxGeometry x="0.7273" y="3" relative="1" as="geometry">
            <mxPoint as="offset" />
          </mxGeometry>
        </mxCell>
        <mxCell id="irMMtgjXP_OlYxTBLziZ-2" value="Encapsulation" style="rounded=1;whiteSpace=wrap;html=1;fontStyle=1;fillColor=#f5f5f5;strokeColor=#666666;fontColor=#333333;" vertex="1" parent="1">
          <mxGeometry x="570" y="260" width="100" height="40" as="geometry" />
        </mxCell>
        <mxCell id="irMMtgjXP_OlYxTBLziZ-3" value="Public" style="rounded=1;whiteSpace=wrap;html=1;" vertex="1" parent="1">
          <mxGeometry x="580" y="10" width="80" height="30" as="geometry" />
        </mxCell>
        <mxCell id="irMMtgjXP_OlYxTBLziZ-5" value="Private" style="rounded=1;whiteSpace=wrap;html=1;" vertex="1" parent="1">
          <mxGeometry x="480" y="10" width="80" height="30" as="geometry" />
        </mxCell>
        <mxCell id="irMMtgjXP_OlYxTBLziZ-6" value="Fields" style="rounded=1;whiteSpace=wrap;html=1;" vertex="1" parent="1">
          <mxGeometry x="380" y="10" width="80" height="30" as="geometry" />
        </mxCell>
        <mxCell id="irMMtgjXP_OlYxTBLziZ-7" value="Object" style="rounded=1;whiteSpace=wrap;html=1;" vertex="1" parent="1">
          <mxGeometry x="280" y="10" width="80" height="30" as="geometry" />
        </mxCell>
        <mxCell id="irMMtgjXP_OlYxTBLziZ-10" value="Role" style="rounded=1;whiteSpace=wrap;html=1;" vertex="1" parent="1">
          <mxGeometry x="440" y="160" width="100" height="40" as="geometry" />
        </mxCell>
        <mxCell id="irMMtgjXP_OlYxTBLziZ-12" value="" style="endArrow=classic;html=1;rounded=0;entryX=0.5;entryY=1;entryDx=0;entryDy=0;" edge="1" parent="1">
          <mxGeometry width="50" height="50" relative="1" as="geometry">
            <mxPoint x="420" y="100" as="sourcePoint" />
            <mxPoint x="420" y="40" as="targetPoint" />
          </mxGeometry>
        </mxCell>
        <mxCell id="irMMtgjXP_OlYxTBLziZ-41" value="Hold" style="edgeLabel;html=1;align=center;verticalAlign=middle;resizable=0;points=[];" connectable="0" vertex="1" parent="irMMtgjXP_OlYxTBLziZ-12">
          <mxGeometry x="0.0333" y="2" relative="1" as="geometry">
            <mxPoint as="offset" />
          </mxGeometry>
        </mxCell>
        <mxCell id="irMMtgjXP_OlYxTBLziZ-13" value="" style="endArrow=classic;html=1;rounded=0;entryX=0.5;entryY=1;entryDx=0;entryDy=0;" edge="1" parent="1">
          <mxGeometry width="50" height="50" relative="1" as="geometry">
            <mxPoint x="319.5" y="100" as="sourcePoint" />
            <mxPoint x="319.5" y="40" as="targetPoint" />
          </mxGeometry>
        </mxCell>
        <mxCell id="irMMtgjXP_OlYxTBLziZ-42" value="Create" style="edgeLabel;html=1;align=center;verticalAlign=middle;resizable=0;points=[];" connectable="0" vertex="1" parent="irMMtgjXP_OlYxTBLziZ-13">
          <mxGeometry x="-0.2667" y="-1" relative="1" as="geometry">
            <mxPoint x="1" as="offset" />
          </mxGeometry>
        </mxCell>
        <mxCell id="irMMtgjXP_OlYxTBLziZ-14" value="" style="endArrow=classic;html=1;rounded=0;entryX=0.5;entryY=1;entryDx=0;entryDy=0;" edge="1" parent="1">
          <mxGeometry width="50" height="50" relative="1" as="geometry">
            <mxPoint x="519" y="100" as="sourcePoint" />
            <mxPoint x="519" y="40" as="targetPoint" />
          </mxGeometry>
        </mxCell>
        <mxCell id="irMMtgjXP_OlYxTBLziZ-43" value="Restrict&lt;div&gt;access&lt;/div&gt;" style="edgeLabel;html=1;align=center;verticalAlign=middle;resizable=0;points=[];" connectable="0" vertex="1" parent="irMMtgjXP_OlYxTBLziZ-14">
          <mxGeometry y="-4" relative="1" as="geometry">
            <mxPoint as="offset" />
          </mxGeometry>
        </mxCell>
        <mxCell id="irMMtgjXP_OlYxTBLziZ-15" value="" style="endArrow=none;html=1;rounded=0;" edge="1" parent="1">
          <mxGeometry width="50" height="50" relative="1" as="geometry">
            <mxPoint x="320" y="100" as="sourcePoint" />
            <mxPoint x="920" y="100" as="targetPoint" />
          </mxGeometry>
        </mxCell>
        <mxCell id="irMMtgjXP_OlYxTBLziZ-16" value="Protected" style="rounded=1;whiteSpace=wrap;html=1;" vertex="1" parent="1">
          <mxGeometry x="680" y="10" width="80" height="30" as="geometry" />
        </mxCell>
        <mxCell id="irMMtgjXP_OlYxTBLziZ-17" value="New" style="rounded=1;whiteSpace=wrap;html=1;" vertex="1" parent="1">
          <mxGeometry x="780" y="10" width="80" height="30" as="geometry" />
        </mxCell>
        <mxCell id="irMMtgjXP_OlYxTBLziZ-18" value="Reference Type" style="rounded=1;whiteSpace=wrap;html=1;" vertex="1" parent="1">
          <mxGeometry x="880" y="10" width="80" height="30" as="geometry" />
        </mxCell>
        <mxCell id="irMMtgjXP_OlYxTBLziZ-19" value="" style="endArrow=classic;html=1;rounded=0;entryX=0.5;entryY=1;entryDx=0;entryDy=0;" edge="1" parent="1">
          <mxGeometry width="50" height="50" relative="1" as="geometry">
            <mxPoint x="719.5" y="100" as="sourcePoint" />
            <mxPoint x="719.5" y="40" as="targetPoint" />
          </mxGeometry>
        </mxCell>
        <mxCell id="irMMtgjXP_OlYxTBLziZ-50" value="Limit&lt;div&gt;access&lt;/div&gt;" style="edgeLabel;html=1;align=center;verticalAlign=middle;resizable=0;points=[];" connectable="0" vertex="1" parent="irMMtgjXP_OlYxTBLziZ-19">
          <mxGeometry x="0.2333" y="2" relative="1" as="geometry">
            <mxPoint x="3" y="7" as="offset" />
          </mxGeometry>
        </mxCell>
        <mxCell id="irMMtgjXP_OlYxTBLziZ-20" value="" style="endArrow=classic;html=1;rounded=0;entryX=0.5;entryY=1;entryDx=0;entryDy=0;" edge="1" parent="1">
          <mxGeometry width="50" height="50" relative="1" as="geometry">
            <mxPoint x="819.5" y="100" as="sourcePoint" />
            <mxPoint x="819.5" y="40" as="targetPoint" />
          </mxGeometry>
        </mxCell>
        <mxCell id="irMMtgjXP_OlYxTBLziZ-53" value="Instantiates" style="edgeLabel;html=1;align=center;verticalAlign=middle;resizable=0;points=[];" connectable="0" vertex="1" parent="irMMtgjXP_OlYxTBLziZ-20">
          <mxGeometry x="-0.0333" y="2" relative="1" as="geometry">
            <mxPoint x="1" as="offset" />
          </mxGeometry>
        </mxCell>
        <mxCell id="irMMtgjXP_OlYxTBLziZ-21" value="" style="endArrow=classic;html=1;rounded=0;entryX=0.5;entryY=1;entryDx=0;entryDy=0;" edge="1" parent="1">
          <mxGeometry width="50" height="50" relative="1" as="geometry">
            <mxPoint x="919.5" y="100" as="sourcePoint" />
            <mxPoint x="919.5" y="40" as="targetPoint" />
          </mxGeometry>
        </mxCell>
        <mxCell id="irMMtgjXP_OlYxTBLziZ-54" value="References" style="edgeLabel;html=1;align=center;verticalAlign=middle;resizable=0;points=[];" connectable="0" vertex="1" parent="irMMtgjXP_OlYxTBLziZ-21">
          <mxGeometry x="-0.1333" y="-1" relative="1" as="geometry">
            <mxPoint x="1" as="offset" />
          </mxGeometry>
        </mxCell>
        <mxCell id="irMMtgjXP_OlYxTBLziZ-23" value="" style="endArrow=classic;html=1;rounded=0;entryX=0.5;entryY=1;entryDx=0;entryDy=0;" edge="1" parent="1">
          <mxGeometry width="50" height="50" relative="1" as="geometry">
            <mxPoint x="620" y="320" as="sourcePoint" />
            <mxPoint x="619.5" y="300" as="targetPoint" />
          </mxGeometry>
        </mxCell>
        <mxCell id="irMMtgjXP_OlYxTBLziZ-24" value="" style="endArrow=none;html=1;rounded=0;" edge="1" parent="1">
          <mxGeometry width="50" height="50" relative="1" as="geometry">
            <mxPoint x="160" y="320" as="sourcePoint" />
            <mxPoint x="620" y="320" as="targetPoint" />
          </mxGeometry>
        </mxCell>
        <mxCell id="irMMtgjXP_OlYxTBLziZ-25" value="" style="endArrow=none;html=1;rounded=0;entryX=0.5;entryY=0;entryDx=0;entryDy=0;" edge="1" parent="1" target="irMMtgjXP_OlYxTBLziZ-1">
          <mxGeometry width="50" height="50" relative="1" as="geometry">
            <mxPoint x="420" y="320" as="sourcePoint" />
            <mxPoint x="630" y="330" as="targetPoint" />
          </mxGeometry>
        </mxCell>
        <mxCell id="irMMtgjXP_OlYxTBLziZ-26" value="Responsibilities" style="rounded=1;whiteSpace=wrap;html=1;" vertex="1" parent="1">
          <mxGeometry x="660" y="170" width="100" height="40" as="geometry" />
        </mxCell>
        <mxCell id="irMMtgjXP_OlYxTBLziZ-28" value="Collaborations" style="rounded=1;whiteSpace=wrap;html=1;" vertex="1" parent="1">
          <mxGeometry x="780" y="170" width="100" height="40" as="geometry" />
        </mxCell>
        <mxCell id="irMMtgjXP_OlYxTBLziZ-36" style="edgeStyle=orthogonalEdgeStyle;rounded=0;orthogonalLoop=1;jettySize=auto;html=1;exitX=0.5;exitY=0;exitDx=0;exitDy=0;entryX=0.5;entryY=1;entryDx=0;entryDy=0;" edge="1" parent="1" source="irMMtgjXP_OlYxTBLziZ-30" target="irMMtgjXP_OlYxTBLziZ-34">
          <mxGeometry relative="1" as="geometry">
            <Array as="points">
              <mxPoint x="190" y="260" />
              <mxPoint x="190" y="240" />
              <mxPoint x="240" y="240" />
            </Array>
          </mxGeometry>
        </mxCell>
        <mxCell id="irMMtgjXP_OlYxTBLziZ-56" value="Extends" style="edgeLabel;html=1;align=center;verticalAlign=middle;resizable=0;points=[];" connectable="0" vertex="1" parent="irMMtgjXP_OlYxTBLziZ-36">
          <mxGeometry x="0.6667" relative="1" as="geometry">
            <mxPoint as="offset" />
          </mxGeometry>
        </mxCell>
        <mxCell id="irMMtgjXP_OlYxTBLziZ-30" value="Inheritance" style="rounded=1;whiteSpace=wrap;html=1;fontStyle=1;fillColor=#f5f5f5;strokeColor=#666666;fontColor=#333333;" vertex="1" parent="1">
          <mxGeometry x="110" y="260" width="100" height="40" as="geometry" />
        </mxCell>
        <mxCell id="irMMtgjXP_OlYxTBLziZ-31" value="" style="endArrow=classic;html=1;rounded=0;entryX=0.5;entryY=1;entryDx=0;entryDy=0;" edge="1" parent="1" target="irMMtgjXP_OlYxTBLziZ-30">
          <mxGeometry width="50" height="50" relative="1" as="geometry">
            <mxPoint x="160" y="320" as="sourcePoint" />
            <mxPoint x="160" y="330" as="targetPoint" />
          </mxGeometry>
        </mxCell>
        <mxCell id="irMMtgjXP_OlYxTBLziZ-100" style="edgeStyle=orthogonalEdgeStyle;rounded=0;orthogonalLoop=1;jettySize=auto;html=1;exitX=0.5;exitY=1;exitDx=0;exitDy=0;entryX=0.25;entryY=0;entryDx=0;entryDy=0;" edge="1" parent="1" source="irMMtgjXP_OlYxTBLziZ-33" target="irMMtgjXP_OlYxTBLziZ-30">
          <mxGeometry relative="1" as="geometry">
            <Array as="points">
              <mxPoint x="80" y="240" />
              <mxPoint x="135" y="240" />
            </Array>
          </mxGeometry>
        </mxCell>
        <mxCell id="irMMtgjXP_OlYxTBLziZ-101" value="Implements" style="edgeLabel;html=1;align=center;verticalAlign=middle;resizable=0;points=[];" connectable="0" vertex="1" parent="irMMtgjXP_OlYxTBLziZ-100">
          <mxGeometry x="-0.536" y="-3" relative="1" as="geometry">
            <mxPoint as="offset" />
          </mxGeometry>
        </mxCell>
        <mxCell id="irMMtgjXP_OlYxTBLziZ-33" value="Interface" style="rounded=1;whiteSpace=wrap;html=1;" vertex="1" parent="1">
          <mxGeometry x="40" y="160" width="80" height="30" as="geometry" />
        </mxCell>
        <mxCell id="irMMtgjXP_OlYxTBLziZ-34" value="Abstract Class" style="rounded=1;whiteSpace=wrap;html=1;" vertex="1" parent="1">
          <mxGeometry x="200" y="160" width="80" height="30" as="geometry" />
        </mxCell>
        <mxCell id="irMMtgjXP_OlYxTBLziZ-38" value="" style="endArrow=classic;html=1;rounded=0;exitX=0.5;exitY=0;exitDx=0;exitDy=0;entryX=0.125;entryY=1.067;entryDx=0;entryDy=0;entryPerimeter=0;" edge="1" parent="1" source="irMMtgjXP_OlYxTBLziZ-10" target="irMMtgjXP_OlYxTBLziZ-5">
          <mxGeometry width="50" height="50" relative="1" as="geometry">
            <mxPoint x="400" y="220" as="sourcePoint" />
            <mxPoint x="450" y="170" as="targetPoint" />
          </mxGeometry>
        </mxCell>
        <mxCell id="irMMtgjXP_OlYxTBLziZ-39" value="" style="endArrow=none;html=1;rounded=0;" edge="1" parent="1">
          <mxGeometry width="50" height="50" relative="1" as="geometry">
            <mxPoint x="440" y="120" as="sourcePoint" />
            <mxPoint x="490" y="120" as="targetPoint" />
            <Array as="points">
              <mxPoint x="460" y="120" />
            </Array>
          </mxGeometry>
        </mxCell>
        <mxCell id="irMMtgjXP_OlYxTBLziZ-40" value="" style="endArrow=classic;html=1;rounded=0;entryX=0.75;entryY=1;entryDx=0;entryDy=0;" edge="1" parent="1" target="irMMtgjXP_OlYxTBLziZ-6">
          <mxGeometry width="50" height="50" relative="1" as="geometry">
            <mxPoint x="440" y="120" as="sourcePoint" />
            <mxPoint x="450" y="170" as="targetPoint" />
            <Array as="points">
              <mxPoint x="440" y="70" />
            </Array>
          </mxGeometry>
        </mxCell>
        <mxCell id="irMMtgjXP_OlYxTBLziZ-47" style="edgeStyle=orthogonalEdgeStyle;rounded=0;orthogonalLoop=1;jettySize=auto;html=1;exitX=0.5;exitY=0;exitDx=0;exitDy=0;entryX=0.888;entryY=1.1;entryDx=0;entryDy=0;entryPerimeter=0;" edge="1" parent="1" source="irMMtgjXP_OlYxTBLziZ-26" target="irMMtgjXP_OlYxTBLziZ-3">
          <mxGeometry relative="1" as="geometry">
            <Array as="points">
              <mxPoint x="710" y="150" />
              <mxPoint x="651" y="150" />
            </Array>
          </mxGeometry>
        </mxCell>
        <mxCell id="irMMtgjXP_OlYxTBLziZ-48" value="Obligates" style="edgeLabel;html=1;align=center;verticalAlign=middle;resizable=0;points=[];" connectable="0" vertex="1" parent="irMMtgjXP_OlYxTBLziZ-47">
          <mxGeometry x="0.0968" y="2" relative="1" as="geometry">
            <mxPoint as="offset" />
          </mxGeometry>
        </mxCell>
        <mxCell id="irMMtgjXP_OlYxTBLziZ-51" style="edgeStyle=orthogonalEdgeStyle;rounded=0;orthogonalLoop=1;jettySize=auto;html=1;exitX=0.5;exitY=0;exitDx=0;exitDy=0;entryX=0.875;entryY=1.1;entryDx=0;entryDy=0;entryPerimeter=0;" edge="1" parent="1" source="irMMtgjXP_OlYxTBLziZ-28" target="irMMtgjXP_OlYxTBLziZ-16">
          <mxGeometry relative="1" as="geometry">
            <Array as="points">
              <mxPoint x="830" y="150" />
              <mxPoint x="750" y="150" />
            </Array>
          </mxGeometry>
        </mxCell>
        <mxCell id="irMMtgjXP_OlYxTBLziZ-52" value="Collaborates Through" style="edgeLabel;html=1;align=center;verticalAlign=middle;resizable=0;points=[];" connectable="0" vertex="1" parent="irMMtgjXP_OlYxTBLziZ-51">
          <mxGeometry x="0.1498" relative="1" as="geometry">
            <mxPoint x="40" y="-1" as="offset" />
          </mxGeometry>
        </mxCell>
        <mxCell id="irMMtgjXP_OlYxTBLziZ-58" value="Polymorphism" style="rounded=1;whiteSpace=wrap;html=1;fontStyle=1;fillColor=#f5f5f5;fontColor=#333333;strokeColor=#666666;" vertex="1" parent="1">
          <mxGeometry x="220" y="510" width="100" height="40" as="geometry" />
        </mxCell>
        <mxCell id="irMMtgjXP_OlYxTBLziZ-85" style="edgeStyle=orthogonalEdgeStyle;rounded=0;orthogonalLoop=1;jettySize=auto;html=1;exitX=0.5;exitY=1;exitDx=0;exitDy=0;entryX=0.75;entryY=0;entryDx=0;entryDy=0;" edge="1" parent="1" source="irMMtgjXP_OlYxTBLziZ-59" target="irMMtgjXP_OlYxTBLziZ-82">
          <mxGeometry relative="1" as="geometry">
            <Array as="points">
              <mxPoint x="750" y="580" />
              <mxPoint x="540" y="580" />
            </Array>
          </mxGeometry>
        </mxCell>
        <mxCell id="irMMtgjXP_OlYxTBLziZ-86" value="Implements" style="edgeLabel;html=1;align=center;verticalAlign=middle;resizable=0;points=[];" connectable="0" vertex="1" parent="irMMtgjXP_OlYxTBLziZ-85">
          <mxGeometry x="0.8467" y="3" relative="1" as="geometry">
            <mxPoint as="offset" />
          </mxGeometry>
        </mxCell>
        <mxCell id="irMMtgjXP_OlYxTBLziZ-90" style="edgeStyle=orthogonalEdgeStyle;rounded=0;orthogonalLoop=1;jettySize=auto;html=1;exitX=0.5;exitY=1;exitDx=0;exitDy=0;entryX=0.5;entryY=0;entryDx=0;entryDy=0;" edge="1" parent="1" source="irMMtgjXP_OlYxTBLziZ-59" target="irMMtgjXP_OlYxTBLziZ-89">
          <mxGeometry relative="1" as="geometry">
            <Array as="points">
              <mxPoint x="750" y="580" />
              <mxPoint x="980" y="580" />
            </Array>
          </mxGeometry>
        </mxCell>
        <mxCell id="irMMtgjXP_OlYxTBLziZ-95" value="Defines" style="edgeLabel;html=1;align=center;verticalAlign=middle;resizable=0;points=[];" connectable="0" vertex="1" parent="irMMtgjXP_OlYxTBLziZ-90">
          <mxGeometry x="0.8313" relative="1" as="geometry">
            <mxPoint as="offset" />
          </mxGeometry>
        </mxCell>
        <mxCell id="irMMtgjXP_OlYxTBLziZ-91" style="edgeStyle=orthogonalEdgeStyle;rounded=0;orthogonalLoop=1;jettySize=auto;html=1;exitX=0.5;exitY=1;exitDx=0;exitDy=0;entryX=0.5;entryY=0;entryDx=0;entryDy=0;" edge="1" parent="1" source="irMMtgjXP_OlYxTBLziZ-59" target="irMMtgjXP_OlYxTBLziZ-87">
          <mxGeometry relative="1" as="geometry">
            <Array as="points">
              <mxPoint x="750" y="580" />
              <mxPoint x="660" y="580" />
            </Array>
          </mxGeometry>
        </mxCell>
        <mxCell id="irMMtgjXP_OlYxTBLziZ-93" value="Utilizes" style="edgeLabel;html=1;align=center;verticalAlign=middle;resizable=0;points=[];" connectable="0" vertex="1" parent="irMMtgjXP_OlYxTBLziZ-91">
          <mxGeometry x="0.3739" y="2" relative="1" as="geometry">
            <mxPoint as="offset" />
          </mxGeometry>
        </mxCell>
        <mxCell id="irMMtgjXP_OlYxTBLziZ-92" style="edgeStyle=orthogonalEdgeStyle;rounded=0;orthogonalLoop=1;jettySize=auto;html=1;exitX=0.5;exitY=1;exitDx=0;exitDy=0;entryX=0.5;entryY=0;entryDx=0;entryDy=0;" edge="1" parent="1" source="irMMtgjXP_OlYxTBLziZ-59" target="irMMtgjXP_OlYxTBLziZ-88">
          <mxGeometry relative="1" as="geometry">
            <Array as="points">
              <mxPoint x="750" y="580" />
              <mxPoint x="840" y="580" />
            </Array>
          </mxGeometry>
        </mxCell>
        <mxCell id="irMMtgjXP_OlYxTBLziZ-94" value="Triggers" style="edgeLabel;html=1;align=center;verticalAlign=middle;resizable=0;points=[];" connectable="0" vertex="1" parent="irMMtgjXP_OlYxTBLziZ-92">
          <mxGeometry x="0.4087" y="-2" relative="1" as="geometry">
            <mxPoint as="offset" />
          </mxGeometry>
        </mxCell>
        <mxCell id="irMMtgjXP_OlYxTBLziZ-59" value="Abstraction" style="rounded=1;whiteSpace=wrap;html=1;fontStyle=1;fillColor=#f5f5f5;fontColor=#333333;strokeColor=#666666;" vertex="1" parent="1">
          <mxGeometry x="700" y="510" width="100" height="40" as="geometry" />
        </mxCell>
        <mxCell id="irMMtgjXP_OlYxTBLziZ-60" value="" style="endArrow=none;html=1;rounded=0;entryX=0.5;entryY=1;entryDx=0;entryDy=0;" edge="1" parent="1" target="irMMtgjXP_OlYxTBLziZ-1">
          <mxGeometry width="50" height="50" relative="1" as="geometry">
            <mxPoint x="420" y="470" as="sourcePoint" />
            <mxPoint x="425" y="430" as="targetPoint" />
          </mxGeometry>
        </mxCell>
        <mxCell id="irMMtgjXP_OlYxTBLziZ-61" value="" style="endArrow=none;html=1;rounded=0;" edge="1" parent="1">
          <mxGeometry width="50" height="50" relative="1" as="geometry">
            <mxPoint x="270" y="470" as="sourcePoint" />
            <mxPoint x="750" y="470" as="targetPoint" />
          </mxGeometry>
        </mxCell>
        <mxCell id="irMMtgjXP_OlYxTBLziZ-62" value="" style="endArrow=classic;html=1;rounded=0;entryX=0.5;entryY=0;entryDx=0;entryDy=0;" edge="1" parent="1" target="irMMtgjXP_OlYxTBLziZ-58">
          <mxGeometry width="50" height="50" relative="1" as="geometry">
            <mxPoint x="270" y="470" as="sourcePoint" />
            <mxPoint x="250" y="400" as="targetPoint" />
          </mxGeometry>
        </mxCell>
        <mxCell id="irMMtgjXP_OlYxTBLziZ-63" value="" style="endArrow=classic;html=1;rounded=0;entryX=0.5;entryY=0;entryDx=0;entryDy=0;" edge="1" parent="1" target="irMMtgjXP_OlYxTBLziZ-59">
          <mxGeometry width="50" height="50" relative="1" as="geometry">
            <mxPoint x="750" y="470" as="sourcePoint" />
            <mxPoint x="770" y="510" as="targetPoint" />
          </mxGeometry>
        </mxCell>
        <mxCell id="irMMtgjXP_OlYxTBLziZ-76" style="edgeStyle=orthogonalEdgeStyle;rounded=0;orthogonalLoop=1;jettySize=auto;html=1;exitX=0.5;exitY=1;exitDx=0;exitDy=0;entryX=0.75;entryY=0;entryDx=0;entryDy=0;" edge="1" parent="1" source="irMMtgjXP_OlYxTBLziZ-64" target="irMMtgjXP_OlYxTBLziZ-73">
          <mxGeometry relative="1" as="geometry" />
        </mxCell>
        <mxCell id="irMMtgjXP_OlYxTBLziZ-77" value="Increases With" style="edgeLabel;html=1;align=center;verticalAlign=middle;resizable=0;points=[];" connectable="0" vertex="1" parent="irMMtgjXP_OlYxTBLziZ-76">
          <mxGeometry x="-0.6625" y="-3" relative="1" as="geometry">
            <mxPoint as="offset" />
          </mxGeometry>
        </mxCell>
        <mxCell id="irMMtgjXP_OlYxTBLziZ-64" value="Coupling" style="rounded=1;whiteSpace=wrap;html=1;" vertex="1" parent="1">
          <mxGeometry x="350" y="490" width="100" height="40" as="geometry" />
        </mxCell>
        <mxCell id="irMMtgjXP_OlYxTBLziZ-65" value="Cohesion" style="rounded=1;whiteSpace=wrap;html=1;" vertex="1" parent="1">
          <mxGeometry x="10" y="460" width="100" height="40" as="geometry" />
        </mxCell>
        <mxCell id="irMMtgjXP_OlYxTBLziZ-66" value="Overide" style="rounded=1;whiteSpace=wrap;html=1;" vertex="1" parent="1">
          <mxGeometry x="50" y="610" width="80" height="30" as="geometry" />
        </mxCell>
        <mxCell id="irMMtgjXP_OlYxTBLziZ-67" style="edgeStyle=orthogonalEdgeStyle;rounded=0;orthogonalLoop=1;jettySize=auto;html=1;exitX=0.5;exitY=1;exitDx=0;exitDy=0;entryX=0.125;entryY=0.067;entryDx=0;entryDy=0;entryPerimeter=0;" edge="1" parent="1" source="irMMtgjXP_OlYxTBLziZ-65" target="irMMtgjXP_OlYxTBLziZ-66">
          <mxGeometry relative="1" as="geometry" />
        </mxCell>
        <mxCell id="irMMtgjXP_OlYxTBLziZ-68" value="" style="endArrow=none;html=1;rounded=0;entryX=0.5;entryY=1;entryDx=0;entryDy=0;" edge="1" parent="1">
          <mxGeometry width="50" height="50" relative="1" as="geometry">
            <mxPoint x="270" y="580" as="sourcePoint" />
            <mxPoint x="269.5" y="550" as="targetPoint" />
          </mxGeometry>
        </mxCell>
        <mxCell id="irMMtgjXP_OlYxTBLziZ-69" value="" style="endArrow=none;html=1;rounded=0;" edge="1" parent="1">
          <mxGeometry width="50" height="50" relative="1" as="geometry">
            <mxPoint x="100" y="580" as="sourcePoint" />
            <mxPoint x="500" y="580" as="targetPoint" />
          </mxGeometry>
        </mxCell>
        <mxCell id="irMMtgjXP_OlYxTBLziZ-70" style="edgeStyle=orthogonalEdgeStyle;rounded=0;orthogonalLoop=1;jettySize=auto;html=1;entryX=0.125;entryY=0.067;entryDx=0;entryDy=0;entryPerimeter=0;" edge="1" parent="1">
          <mxGeometry relative="1" as="geometry">
            <mxPoint x="100" y="580" as="sourcePoint" />
            <mxPoint x="100" y="610" as="targetPoint" />
          </mxGeometry>
        </mxCell>
        <mxCell id="irMMtgjXP_OlYxTBLziZ-71" value="Abstract&lt;div&gt;methods&lt;/div&gt;" style="rounded=1;whiteSpace=wrap;html=1;" vertex="1" parent="1">
          <mxGeometry x="160" y="680" width="80" height="30" as="geometry" />
        </mxCell>
        <mxCell id="irMMtgjXP_OlYxTBLziZ-72" value="" style="endArrow=classic;html=1;rounded=0;entryX=0.5;entryY=0;entryDx=0;entryDy=0;" edge="1" parent="1" target="irMMtgjXP_OlYxTBLziZ-71">
          <mxGeometry width="50" height="50" relative="1" as="geometry">
            <mxPoint x="200" y="580" as="sourcePoint" />
            <mxPoint x="370" y="650" as="targetPoint" />
          </mxGeometry>
        </mxCell>
        <mxCell id="irMMtgjXP_OlYxTBLziZ-73" value="Overload" style="rounded=1;whiteSpace=wrap;html=1;" vertex="1" parent="1">
          <mxGeometry x="260" y="610" width="80" height="30" as="geometry" />
        </mxCell>
        <mxCell id="irMMtgjXP_OlYxTBLziZ-75" value="" style="endArrow=classic;html=1;rounded=0;entryX=0.5;entryY=0;entryDx=0;entryDy=0;" edge="1" parent="1" target="irMMtgjXP_OlYxTBLziZ-73">
          <mxGeometry width="50" height="50" relative="1" as="geometry">
            <mxPoint x="300" y="580" as="sourcePoint" />
            <mxPoint x="450" y="540" as="targetPoint" />
          </mxGeometry>
        </mxCell>
        <mxCell id="irMMtgjXP_OlYxTBLziZ-80" style="edgeStyle=orthogonalEdgeStyle;rounded=0;orthogonalLoop=1;jettySize=auto;html=1;exitX=0.5;exitY=1;exitDx=0;exitDy=0;entryX=1;entryY=0.5;entryDx=0;entryDy=0;" edge="1" parent="1" source="irMMtgjXP_OlYxTBLziZ-78" target="irMMtgjXP_OlYxTBLziZ-71">
          <mxGeometry relative="1" as="geometry" />
        </mxCell>
        <mxCell id="irMMtgjXP_OlYxTBLziZ-81" value="Allows" style="edgeLabel;html=1;align=center;verticalAlign=middle;resizable=0;points=[];" connectable="0" vertex="1" parent="irMMtgjXP_OlYxTBLziZ-80">
          <mxGeometry x="-0.0359" y="-2" relative="1" as="geometry">
            <mxPoint as="offset" />
          </mxGeometry>
        </mxCell>
        <mxCell id="irMMtgjXP_OlYxTBLziZ-78" value="Virtual" style="rounded=1;whiteSpace=wrap;html=1;" vertex="1" parent="1">
          <mxGeometry x="370" y="640" width="80" height="30" as="geometry" />
        </mxCell>
        <mxCell id="irMMtgjXP_OlYxTBLziZ-79" value="" style="endArrow=classic;html=1;rounded=0;entryX=0.5;entryY=0;entryDx=0;entryDy=0;" edge="1" parent="1" target="irMMtgjXP_OlYxTBLziZ-78">
          <mxGeometry width="50" height="50" relative="1" as="geometry">
            <mxPoint x="410" y="580" as="sourcePoint" />
            <mxPoint x="310" y="620" as="targetPoint" />
          </mxGeometry>
        </mxCell>
        <mxCell id="irMMtgjXP_OlYxTBLziZ-82" value="Method" style="rounded=1;whiteSpace=wrap;html=1;" vertex="1" parent="1">
          <mxGeometry x="480" y="640" width="80" height="30" as="geometry" />
        </mxCell>
        <mxCell id="irMMtgjXP_OlYxTBLziZ-83" value="" style="endArrow=classic;html=1;rounded=0;entryX=0.5;entryY=0;entryDx=0;entryDy=0;" edge="1" parent="1">
          <mxGeometry width="50" height="50" relative="1" as="geometry">
            <mxPoint x="500" y="580" as="sourcePoint" />
            <mxPoint x="500" y="640" as="targetPoint" />
          </mxGeometry>
        </mxCell>
        <mxCell id="irMMtgjXP_OlYxTBLziZ-84" value="Overloads" style="edgeLabel;html=1;align=center;verticalAlign=middle;resizable=0;points=[];" connectable="0" vertex="1" parent="irMMtgjXP_OlYxTBLziZ-83">
          <mxGeometry x="-0.2667" y="2" relative="1" as="geometry">
            <mxPoint x="-2" y="-2" as="offset" />
          </mxGeometry>
        </mxCell>
        <mxCell id="irMMtgjXP_OlYxTBLziZ-87" value="Class" style="rounded=1;whiteSpace=wrap;html=1;" vertex="1" parent="1">
          <mxGeometry x="620" y="690" width="80" height="30" as="geometry" />
        </mxCell>
        <mxCell id="irMMtgjXP_OlYxTBLziZ-88" value="Method Call" style="rounded=1;whiteSpace=wrap;html=1;" vertex="1" parent="1">
          <mxGeometry x="800" y="690" width="80" height="30" as="geometry" />
        </mxCell>
        <mxCell id="irMMtgjXP_OlYxTBLziZ-89" value="Value Type" style="rounded=1;whiteSpace=wrap;html=1;" vertex="1" parent="1">
          <mxGeometry x="940" y="640" width="80" height="30" as="geometry" />
        </mxCell>
      </root>
    </mxGraphModel>
  </diagram>
</mxfile>
